# xmcd
#
# Track frame offsets:
#	150
#	11260
#	25145
#	41055
#	51190
#	72372
#	86082
#	101565
#	115160
#	131662
#	149475
#	162237
#	174052
#	184640
#	197442
#	210842
#	220740
#	240257
#	259400
#	273067
#
# Disc length: 3926 seconds
#
# Revision: 1
# Processed by: cddbd v1.5.2PL0 Copyright (c) Steve Scherf et al.
# Submitted via: audiograbber 1.82.02
#
DISCID=0b0f5414
DTITLE=Paul McCloud - Pure Gospel
DYEAR=1979
DGENRE=Country
TTITLE0=Wings Of A Dove
TTITLE1=Who Am I
TTITLE2=Amazing Grace
TTITLE3=My Daily Prayer
TTITLE4=Hello Lord
TTITLE5=Just A Closer Walk With Thee
TTITLE6=Man With The Candle
TTITLE7=One Day At A Time
TTITLE8=Holy Spirit
TTITLE9=The Old Rugged Cross
TTITLE10=Open Thy Merciful Arms
TTITLE11=Give Them All To Jesus
TTITLE12=He Touched Me
TTITLE13=We Call On Him
TTITLE14=Life
TTITLE15=Born Again
TTITLE16=Touch Those Cords Again
TTITLE17=Thank You Lord
TTITLE18=The Difference In My Life Is Jesus
TTITLE19=How Great Thou Art
EXTD=
EXTT0=
EXTT1=
EXTT2=
EXTT3=
EXTT4=
EXTT5=
EXTT6=
EXTT7=
EXTT8=
EXTT9=
EXTT10=
EXTT11=
EXTT12=
EXTT13=
EXTT14=
EXTT15=
EXTT16=
EXTT17=
EXTT18=
EXTT19=
PLAYORDER=
